<svg xmlns="http://www.w3.org/2000/svg" xmlns:xlink="http://www.w3.org/1999/xlink" width="74" height="24" viewBox="0 0 74 24">
    <defs>
        <path id="0svyc5rz8a" d="M0 0.212L12.645 0.212 12.645 23.716 0 23.716z"/>
        <path id="k9gnsw65ac" d="M0.151 0L23.746 0 23.746 23.897 0.151 23.897z"/>
    </defs>
    <g fill="none" fill-rule="evenodd">
        <g>
            <path stroke="#000" stroke-width="2" d="M1 1H1919V1079H1z" transform="translate(-130 -31)"/>
            <g fill="#FFF" stroke="#000" stroke-width="2">
                <path d="M1 1H1836V83H1z" transform="translate(-130 -31) translate(83)"/>
            </g>
            <g>
                <g transform="translate(-130 -31) translate(130 31)">
                    <mask id="7f4np1e1gb" fill="#fff">
                        <use xlink:href="#0svyc5rz8a"/>
                    </mask>
                    <path fill="#000" d="M0 20.6v-1.633c.545 1.21 1.336 2.158 2.374 2.843 1.039.686 2.284 1.028 3.737 1.028 1.008 0 1.94-.221 2.798-.665.856-.443 1.537-1.068 2.042-1.876.503-.806.756-1.733.756-2.782 0-.948-.162-1.765-.484-2.45-.323-.686-.858-1.347-1.603-1.982-.747-.635-1.826-1.387-3.237-2.254l-.968-.605C4.527 9.68 3.81 9.196 3.267 8.772 2.722 8.35 2.25 7.855 1.845 7.29c-.525-.787-.786-1.694-.786-2.723 0-1.37.443-2.44 1.33-3.206C3.278.595 4.407.211 5.779.211c1.855 0 3.327.686 4.416 2.057v1.543c-.464-.847-1.1-1.512-1.906-1.996-.807-.484-1.693-.726-2.662-.726-1.008 0-1.855.313-2.54.938-.686.625-1.029 1.462-1.029 2.51 0 1.029.317 1.911.953 2.647.635.737 1.709 1.538 3.221 2.405 1.855 1.089 3.298 2.078 4.326 2.964.726.666 1.256 1.403 1.588 2.209.333.806.5 1.704.5 2.692 0 1.25-.293 2.35-.878 3.297-.585.949-1.391 1.68-2.42 2.193-1.028.515-2.188.772-3.479.772-2.52 0-4.477-1.039-5.868-3.116" mask="url(#7f4np1e1gb)"/>
                </g>
                <path fill="#000" d="M16.305 0.605L17.303 0.605 17.303 13.764 32.851 13.764 32.851 0.605 33.85 0.605 33.85 23.292 32.851 23.292 32.851 14.641 17.303 14.641 17.303 23.292 16.305 23.292z" transform="translate(-130 -31) translate(130 31)"/>
                <g transform="translate(-130 -31) translate(130 31) translate(37.51)">
                    <mask id="mryk5v1acd" fill="#fff">
                        <use xlink:href="#k9gnsw65ac"/>
                    </mask>
                    <path fill="#000" d="M17.333 21.523c1.654-.999 2.97-2.35 3.948-4.054.977-1.704 1.466-3.554 1.466-5.55 0-1.977-.483-3.812-1.452-5.506-.968-1.694-2.279-3.04-3.932-4.039-1.654-.998-3.448-1.497-5.384-1.497-1.956 0-3.762.499-5.415 1.497-1.654.999-2.97 2.345-3.948 4.039-.978 1.694-1.467 3.53-1.467 5.505 0 1.997.489 3.847 1.467 5.551.978 1.705 2.294 3.055 3.948 4.054 1.653.998 3.449 1.497 5.385 1.497 1.935 0 3.73-.499 5.384-1.497m-11.283.71c-1.815-1.108-3.252-2.586-4.31-4.431C.68 15.957.15 13.975.15 11.858c0-2.097.534-4.058 1.603-5.884C2.823 4.15 4.265 2.697 6.08 1.618 7.895.54 9.861 0 11.979 0c2.137 0 4.103.534 5.899 1.603 1.794 1.07 3.221 2.516 4.28 4.341 1.059 1.825 1.588 3.796 1.588 5.914 0 2.178-.53 4.19-1.588 6.035-1.059 1.845-2.49 3.307-4.296 4.386-1.805 1.079-3.776 1.618-5.913 1.618-2.118 0-4.084-.554-5.9-1.663" mask="url(#mryk5v1acd)"/>
                </g>
                <path fill="#000" d="M66.64 14.157c1.835 0 3.337-.57 4.507-1.709 1.17-1.14 1.755-2.748 1.755-4.825 0-1.976-.55-3.494-1.65-4.553-1.098-1.058-2.656-1.588-4.673-1.588h-.242v12.675h.303zM65.34.605h.997c2.38 0 4.235.63 5.566 1.89 1.331 1.26 1.997 2.95 1.997 5.067 0 1.473-.323 2.779-.968 3.918-.646 1.14-1.523 2.016-2.631 2.632-1.11.615-2.35.922-3.722.922h-.242v8.258h-.998V.605z" transform="translate(-130 -31) translate(130 31)"/>
            </g>
        </g>
    </g>
</svg>
