<svg xmlns="http://www.w3.org/2000/svg" width="85" height="24" viewBox="0 0 85 24">
    <g fill="none" fill-rule="evenodd">
        <g>
            <g fill="#FFF" stroke="#000" stroke-width="2">
                <path d="M1 1H272V1079H1z" transform="translate(-35 -263)"/>
            </g>
            <g fill="#000">
                <g>
                    <path d="M0 .605L.999.605.999 13.764 16.546 13.764 16.546.605 17.545.605 17.545 23.292 16.546 23.292 16.546 14.641.999 14.641.999 23.292 0 23.292zM38.538 21.523c1.654-.999 2.97-2.35 3.948-4.054.978-1.704 1.467-3.554 1.467-5.55 0-1.977-.484-3.812-1.452-5.506-.968-1.694-2.28-3.04-3.933-4.039C36.915 1.376 35.12.877 33.184.877c-1.956 0-3.762.5-5.415 1.497-1.653.999-2.97 2.345-3.948 4.04-.978 1.693-1.467 3.528-1.467 5.505 0 1.996.489 3.846 1.467 5.55.979 1.705 2.295 3.055 3.948 4.054 1.653.998 3.449 1.497 5.385 1.497s3.73-.499 5.384-1.497m-11.283.71c-1.815-1.108-3.252-2.585-4.31-4.431-1.06-1.845-1.589-3.826-1.589-5.944 0-2.097.535-4.058 1.603-5.884 1.069-1.825 2.511-3.276 4.326-4.356C29.1.54 31.067 0 33.185 0c2.136 0 4.102.535 5.898 1.603 1.794 1.07 3.221 2.516 4.28 4.341 1.059 1.826 1.588 3.797 1.588 5.914 0 2.178-.529 4.19-1.588 6.035-1.059 1.845-2.49 3.307-4.296 4.386-1.805 1.079-3.776 1.619-5.913 1.619-2.118 0-4.084-.555-5.899-1.664M72.025.605L72.025 23.292 71.027 23.292 71.027 2.057 60.318 23.716 49.67 1.785 49.67 23.292 48.672 23.292 48.672.605 50.093.605 60.318 21.659 70.633.605zM76.804.605L84.941.605 84.941 1.482 77.802 1.482 77.802 13.824 83.762 13.824 83.762 14.701 77.802 14.701 77.802 22.415 84.941 22.415 84.941 23.292 76.804 23.292z" transform="translate(-35 -263) translate(35 262) translate(0 1)"/>
                </g>
            </g>
        </g>
    </g>
</svg>
