<svg xmlns="http://www.w3.org/2000/svg" width="27" height="27" viewBox="0 0 27 27">
    <g fill="none" fill-rule="evenodd" stroke="#000">
        <path fill="#FFF" stroke-width="2" d="M1 1H1919V1079H1z" transform="translate(-29 -260)"/>
        <path fill="#FFF" stroke-width="2" d="M1 1H85V1079H1z" transform="translate(-29 -260)"/>
        <g stroke-linecap="round" stroke-linejoin="round" stroke-width="1.1">
            <path d="M23.65 8.8L23.65 24.2 1.65 24.2 1.65 8.8" transform="translate(-29 -260) translate(30 262)"/>
            <path d="M9.35 24.2L9.35 13.75 15.95 13.75 15.95 24.2M0 9.9L12.65.055 25.3 9.9M18.755 4.785L18.755 2.75 20.9 2.75 20.9 6.05" transform="translate(-29 -260) translate(30 262)"/>
            <path d="M9.35 13.75L15.95 13.75 15.95 24.2 9.35 24.2" transform="translate(-29 -260) translate(30 262)"/>
        </g>
    </g>
</svg>
