<svg xmlns="http://www.w3.org/2000/svg" width="25" height="25" viewBox="0 0 25 25">
    <g fill="none" fill-rule="evenodd">
        <path fill="#FFF" stroke="#000" stroke-width="2" d="M1 1H1919V1079H1z" transform="translate(-30 -1023)"/>
        <path fill="#FFF" stroke="#000" stroke-width="2" d="M1 1H85V1079H1z" transform="translate(-30 -1023)"/>
        <g>
            <path stroke="#000" stroke-width="1.1" d="M6.6 23.1h9.9c3.63 0 6.6-2.97 6.6-6.6V6.6c0-3.63-2.97-6.6-6.6-6.6H6.6C2.97 0 0 2.97 0 6.6v9.9c0 3.63 2.97 6.6 6.6 6.6z" transform="translate(-30 -1023) translate(31 1024)"/>
            <path stroke="#000" stroke-width="1.1" d="M11.55 6.05c-3.025 0-5.5 2.475-5.5 5.5s2.475 5.5 5.5 5.5 5.5-2.475 5.5-5.5-2.475-5.5-5.5-5.5z" transform="translate(-30 -1023) translate(31 1024)"/>
            <path fill="#000" fill-rule="nonzero" d="M18.15 3.85c-.605 0-1.1.495-1.1 1.1 0 .605.495 1.1 1.1 1.1.605 0 1.1-.495 1.1-1.1 0-.605-.495-1.1-1.1-1.1z" transform="translate(-30 -1023) translate(31 1024)"/>
        </g>
    </g>
</svg>
