<svg xmlns="http://www.w3.org/2000/svg" xmlns:xlink="http://www.w3.org/1999/xlink" width="37" height="49" viewBox="0 0 37 49">
    <defs>
        <path id="uwvtnmtt9a" d="M0 0L36.436 0 36.436 48 0 48z"/>
    </defs>
    <g fill="none" fill-rule="evenodd">
        <path fill="#FFF" stroke="#000" stroke-width="2" d="M1 1H1919V1079H1z" transform="translate(-23 -112)"/>
        <path fill="#FFF" stroke="#000" stroke-width="2" d="M1 1H85V1079H1z" transform="translate(-23 -112)"/>
        <g transform="translate(-23 -112) translate(23 113)">
            <mask id="ca2bf2bd8b" fill="#fff">
                <use xlink:href="#uwvtnmtt9a"/>
            </mask>
            <path fill="#000" d="M34.335 46.144h-12.7v-8.92c.237-.369.47-.742.69-1.128.611-1.073 1.122-2.18 1.555-3.316l10.455 13.26.082.104h-.082zm-12.7-16.21l.755.956c-.216.708-.469 1.402-.754 2.085v-3.041zm0-16.43c1.17 2.972 1.757 6.469 1.757 10.496 0 1.318-.11 2.594-.306 3.84h-.548l-.902-1.143V13.504zm12.7 16.192V42.78l-9.707-12.293c.058-.22.108-.44.16-.662.01-.042.02-.085.028-.128h9.519zm-12.7-27.84h12.7V27.84h-9.166c.187-1.249.292-2.526.292-3.84 0-6.07-1.279-11.036-3.825-14.908V1.856zm-2.069 22.22L2.102 1.958l-.03-.038H2.51c6.688 0 11.841 1.91 15.457 5.728.582.615 1.112 1.276 1.6 1.975v14.453zm0 3.764H2.102V5.159l17.464 22.15v.53zm0 8.977c-1.727 2.581-3.896 4.682-6.522 6.287-3.178 1.942-6.69 2.912-10.535 2.912h-.407v-16.32h17.464v7.121zM36.405 0H19.566v6.477c-.074-.078-.144-.16-.22-.237C15.288 2.098 9.54.02 2.103.002L2.006 0H0v48H2.006l.096-.003c4.268-.016 8.178-1.079 11.726-3.197 2.193-1.309 4.104-2.91 5.738-4.797V48H36.435V0h-.03z" mask="url(#ca2bf2bd8b)"/>
        </g>
    </g>
</svg>
