<svg xmlns="http://www.w3.org/2000/svg" xmlns:xlink="http://www.w3.org/1999/xlink" width="73" height="24" viewBox="0 0 73 24">
    <defs>
        <path id="9hgq6weoma" d="M0 0L9.135 0 9.135 22.688 0 22.688z"/>
        <path id="kofjmy80dc" d="M0 23.232L72.69 23.232 72.69 0 0 0z"/>
    </defs>
    <g fill="none" fill-rule="evenodd">
        <g>
            <g fill="#FFF" stroke="#000" stroke-width="2">
                <path d="M1 1H272V1079H1z" transform="translate(-35 -321)"/>
            </g>
            <g transform="translate(-35 -321) translate(35 321)">
                <g transform="translate(0 .544)">
                    <mask id="pofta5ul0b" fill="#fff">
                        <use xlink:href="#9hgq6weoma"/>
                    </mask>
                    <path fill="#000" d="M1.512 13.582c1.15 0 2.198-.282 3.146-.847.948-.564 1.694-1.326 2.239-2.284.544-.957.817-2.021.817-3.19 0-2.038-.55-3.61-1.649-4.72C4.965 1.432 3.398.877 1.361.877H.968v12.705h.544zM0 0h1.3c2.36 0 4.18.625 5.46 1.876C8.042 3.126 8.682 4.91 8.682 7.23c0 1.33-.317 2.551-.952 3.66-.636 1.11-1.498 1.981-2.587 2.617-1.089.635-2.289.952-3.6.952h-.211l7.804 8.229h-1.3l-6.867-7.2v7.2H0V0z" mask="url(#pofta5ul0b)"/>
                </g>
                <path fill="#000" d="M12.493.544L20.63.544 20.63 1.422 13.491 1.422 13.491 13.764 19.451 13.764 19.451 14.641 13.491 14.641 13.491 22.355 20.63 22.355 20.63 23.232 12.493 23.232zM25.076 14.096c1.835 0 3.338-.57 4.508-1.708 1.17-1.14 1.754-2.748 1.754-4.826 0-1.976-.55-3.493-1.648-4.552-1.1-1.059-2.658-1.588-4.674-1.588h-.242v12.674h.302zM23.776.544h.998c2.38 0 4.235.63 5.566 1.891 1.331 1.26 1.996 2.95 1.996 5.067 0 1.472-.322 2.778-.967 3.917-.646 1.14-1.523 2.017-2.632 2.632-1.11.616-2.35.923-3.72.923h-.243v8.258h-.998V.544zM48.4 13.703L42.713 2.178l-5.566 11.525H48.4zm5.717 9.529h-1.06l-4.294-8.652h-12.04l-4.205 8.652H31.46L42.773 0l11.344 23.232z"/>
                <mask id="91x8w368ld" fill="#fff">
                    <use xlink:href="#kofjmy80dc"/>
                </mask>
                <path fill="#000" d="M57.626 23.232L58.624 23.232 58.624.544 57.626.544zM65.067 14.127c1.15 0 2.198-.283 3.145-.847.948-.565 1.695-1.326 2.24-2.284.544-.958.816-2.022.816-3.191 0-2.037-.55-3.61-1.649-4.72-1.1-1.108-2.667-1.663-4.703-1.663h-.394v12.705h.545zM63.554.545h1.301c2.36 0 4.179.625 5.46 1.875 1.28 1.25 1.92 3.035 1.92 5.354 0 1.331-.317 2.552-.952 3.66-.635 1.11-1.497 1.982-2.586 2.617-1.09.635-2.29.953-3.6.953h-.212l7.804 8.228h-1.3l-6.867-7.2v7.2h-.968V.545z" mask="url(#91x8w368ld)"/>
            </g>
        </g>
    </g>
</svg>
