<svg xmlns="http://www.w3.org/2000/svg" width="129" height="36" viewBox="0 0 129 36">
    <g fill="none" fill-rule="evenodd">
        <g>
            <path fill="#FFF" stroke="#000" stroke-width="2" d="M1 1H1919V1079H1z" transform="translate(-250 -982)"/>
            <g fill="#FFF" stroke="#000" stroke-width="2">
                <path d="M1 1H459.5V996H1z" transform="translate(-250 -982) translate(84 83)"/>
            </g>
            <g stroke="#000" stroke-width="2">
                <path d="M1 1H379V59H1z" transform="translate(-250 -982) translate(124 970)"/>
            </g>
            <g>
                <g>
                    <path stroke="#000" stroke-linecap="round" stroke-linejoin="round" stroke-width="1.1" d="M21.945 6.325L4.125 24.2 0 25.3 1.1 21.175 18.975 3.355" transform="translate(-250 -982) translate(250 982) translate(104 9)"/>
                    <path fill="#000" fill-rule="nonzero" d="M23.485 5.555l.44-.44c1.045-1.045 1.045-2.75 0-3.795s-2.75-1.045-3.795 0l-.44.44 3.795 3.795zM1.21 21.065l3.025 3.025-3.96.935.935-3.96z" transform="translate(-250 -982) translate(250 982) translate(104 9)"/>
                </g>
                <text fill="#000" font-family="PoiretOne-Regular, Poiret One" font-size="30.2" transform="translate(-250 -982) translate(250 982)">
                    <tspan x="0" y="29">Modify</tspan>
                </text>
            </g>
        </g>
    </g>
</svg>
