<svg xmlns="http://www.w3.org/2000/svg" width="111" height="24" viewBox="0 0 111 24">
    <g fill="none" fill-rule="evenodd">
        <g>
            <g fill="#FFF" stroke="#000" stroke-width="2">
                <path d="M1 1H272V1079H1z" transform="translate(-35 -440)"/>
            </g>
            <g fill="#000">
                <path d="M23.353.605L23.353 23.292 22.355 23.292 22.355 2.057 11.646 23.716.999 1.785.999 23.292 0 23.292 0 .605 1.421.605 11.646 21.659 21.961.605zM40.383.605L33.637 14.217 33.637 23.292 32.639 23.292 32.639 14.217 25.742.605 26.831.605 33.153 13.038 39.355.605zM50.698 14.157c1.835 0 3.337-.57 4.507-1.709 1.17-1.14 1.755-2.747 1.755-4.825 0-1.976-.55-3.494-1.65-4.552-1.098-1.06-2.656-1.589-4.673-1.589h-.242v12.675h.303zM49.398.605h.997c2.38 0 4.235.63 5.566 1.89 1.331 1.261 1.997 2.95 1.997 5.067 0 1.473-.323 2.78-.968 3.918-.646 1.14-1.523 2.017-2.632 2.632-1.11.615-2.35.922-3.72.922h-.243v8.258h-.998V.605zM74.02 13.764L68.335 2.238l-5.566 11.526H74.02zm5.718 9.528h-1.06l-4.294-8.651h-12.04l-4.204 8.651h-1.06L68.395.061l11.344 23.231zM86.348 2.405c-1.645 1.019-2.945 2.38-3.903 4.084-.958 1.704-1.436 3.534-1.436 5.49 0 1.977.483 3.812 1.451 5.506.969 1.694 2.254 3.04 3.857 4.038 1.603.998 3.332 1.497 5.188 1.497 1.089 0 2.062-.1 2.92-.303.856-.2 1.678-.523 2.465-.967V14.64h-7.502v-.877h8.5v7.35l.06-.03v1.12c-.968.585-1.961 1.013-2.979 1.285-1.019.273-2.133.409-3.343.409-2.117 0-4.063-.52-5.838-1.559-1.775-1.038-3.181-2.47-4.22-4.295-1.039-1.825-1.558-3.877-1.558-6.155 0-2.198.54-4.205 1.618-6.02 1.08-1.816 2.521-3.247 4.326-4.296C87.76.525 89.68 0 91.717 0c1.411 0 2.53.126 3.358.378.826.252 1.785.691 2.874 1.316v1.12c-1.03-.706-1.982-1.205-2.86-1.498-.876-.292-1.97-.439-3.281-.439-1.997 0-3.817.51-5.46 1.528M102.032.605L110.169.605 110.169 1.482 103.03 1.482 103.03 13.824 108.99 13.824 108.99 14.701 103.03 14.701 103.03 22.415 110.169 22.415 110.169 23.292 102.032 23.292z" transform="translate(-35 -440) translate(35 440)"/>
            </g>
        </g>
    </g>
</svg>
