<svg xmlns="http://www.w3.org/2000/svg" width="157" height="27" viewBox="0 0 157 27">
    <defs>
        <filter id="5bbhyff9ka">
            <feColorMatrix in="SourceGraphic" values="0 0 0 0 0.000000 0 0 0 0 0.000000 0 0 0 0 0.000000 0 0 0 1.000000 0"/>
        </filter>
        <filter id="21y2tw9o4b">
            <feColorMatrix in="SourceGraphic" values="0 0 0 0 0.000000 0 0 0 0 0.000000 0 0 0 0 0.000000 0 0 0 1.000000 0"/>
        </filter>
        <filter id="zwswoxirnc">
            <feColorMatrix in="SourceGraphic" values="0 0 0 0 0.000000 0 0 0 0 0.000000 0 0 0 0 0.000000 0 0 0 1.000000 0"/>
        </filter>
    </defs>
    <g fill="none" fill-rule="evenodd">
        <g>
            <path fill="#FFF" stroke="#000" stroke-width="2" d="M1 1H1919V1079H1z" transform="translate(-587 -259)"/>
            <g fill="#FFF" stroke="#000" stroke-width="2">
                <path d="M1 1H460V303.667H1z" transform="translate(-587 -259) translate(542.5 166)"/>
            </g>
            <text fill="#000" font-family="NotoSansKR-Thin, Noto Sans KR" font-size="40.4" font-style="condensed" font-weight="300" transform="translate(-587 -259)">
                <tspan x="589.5" y="248">강남사</tspan>
            </text>
            <g>
                <path fill="#FF8A3D" d="M12.1 1.1L8.965 8.415.969 8.987 7.04 14.41 4.785 22.77 12.1 18.04 19.553 23 17.16 14.41 24 8.987 15.78 8.415zM44.1 1.1L40.965 8.415 32.969 8.987 39.04 14.41 36.785 22.77 44.1 18.04 51.553 23 49.16 14.41 56 8.987 47.78 8.415zM76.1 1.1L72.965 8.415 64.969 8.987 71.04 14.41 68.785 22.77 76.1 18.04 83.553 23 81.16 14.41 88 8.987 79.78 8.415z" transform="translate(-587 -259) translate(589.5 261)"/>
                <g filter="url(#5bbhyff9ka)" transform="translate(-587 -259) translate(589.5 261)">
                    <path stroke="#000" stroke-width="1.1" d="M12.1 0.33L15.235 8.415 23.925 8.91 17.16 14.41 19.415 22.77 12.1 18.04 4.785 22.77 7.04 14.41 0.275 8.91 8.965 8.415z"/>
                </g>
                <g filter="url(#21y2tw9o4b)" transform="translate(-587 -259) translate(589.5 261)">
                    <g>
                        <path stroke="#000" stroke-width="1.1" d="M12.1 0.33L15.235 8.415 23.925 8.91 17.16 14.41 19.415 22.77 12.1 18.04 4.785 22.77 7.04 14.41 0.275 8.91 8.965 8.415z" transform="translate(32)"/>
                    </g>
                </g>
                <g filter="url(#zwswoxirnc)" transform="translate(-587 -259) translate(589.5 261)">
                    <g>
                        <path stroke="#000" stroke-width="1.1" d="M12.1 0.33L15.235 8.415 23.925 8.91 17.16 14.41 19.415 22.77 12.1 18.04 4.785 22.77 7.04 14.41 0.275 8.91 8.965 8.415z" transform="translate(64)"/>
                    </g>
                </g>
                <g stroke="#000" stroke-width="1.1">
                    <path d="M12.1 0.33L15.235 8.415 23.925 8.91 17.16 14.41 19.415 22.77 12.1 18.04 4.785 22.77 7.04 14.41 0.275 8.91 8.965 8.415z" transform="translate(-587 -259) translate(589.5 261) translate(96)"/>
                </g>
                <g stroke="#000" stroke-width="1.1">
                    <path d="M12.1 0.33L15.235 8.415 23.925 8.91 17.16 14.41 19.415 22.77 12.1 18.04 4.785 22.77 7.04 14.41 0.275 8.91 8.965 8.415z" transform="translate(-587 -259) translate(589.5 261) translate(128)"/>
                </g>
            </g>
        </g>
    </g>
</svg>
