<svg xmlns="http://www.w3.org/2000/svg" xmlns:xlink="http://www.w3.org/1999/xlink" width="97" height="24" viewBox="0 0 97 24">
    <defs>
        <path id="k3svx46hxa" d="M0 23.898L96.103 23.898 96.103 0 0 0z"/>
    </defs>
    <g fill="none" fill-rule="evenodd">
        <g>
            <g fill="#FFF" stroke="#000" stroke-width="2">
                <path d="M1 1H272V1079H1z" transform="translate(-34 -825)"/>
            </g>
            <g transform="translate(-34 -825) translate(34 825)">
                <path fill="#000" d="M0 20.6v-1.633c.545 1.21 1.336 2.158 2.375 2.843 1.038.686 2.283 1.028 3.736 1.028 1.008 0 1.94-.221 2.798-.665.856-.443 1.537-1.068 2.042-1.876.503-.805.756-1.733.756-2.782 0-.948-.162-1.764-.484-2.45-.323-.686-.857-1.347-1.603-1.982-.747-.635-1.826-1.386-3.237-2.253l-.968-.605c-.888-.545-1.603-1.029-2.148-1.453-.544-.423-1.018-.917-1.422-1.482-.524-.787-.786-1.694-.786-2.723 0-1.37.443-2.439 1.33-3.206C3.278.595 4.407.212 5.779.212c1.855 0 3.327.685 4.416 2.056v1.543c-.464-.846-1.1-1.512-1.906-1.996-.806-.484-1.693-.726-2.661-.726-1.009 0-1.856.313-2.541.938-.686.625-1.029 1.462-1.029 2.51 0 1.029.318 1.912.953 2.647.635.737 1.71 1.538 3.222 2.406 1.855 1.088 3.297 2.077 4.325 2.963.726.667 1.256 1.403 1.588 2.209.333.806.5 1.705.5 2.693 0 1.25-.293 2.348-.878 3.296-.585.949-1.391 1.68-2.42 2.193-1.028.515-2.188.772-3.479.772-2.52 0-4.476-1.039-5.868-3.116"/>
                <mask id="dr8rzesvtb" fill="#fff">
                    <use xlink:href="#k3svx46hxa"/>
                </mask>
                <path fill="#000" d="M16.456 23.293L17.455 23.293 17.455.605 16.456.605zM27.754 2.405c-1.644 1.019-2.944 2.38-3.902 4.084-.958 1.704-1.437 3.534-1.437 5.49 0 1.977.484 3.812 1.452 5.506.968 1.693 2.254 3.04 3.857 4.038 1.603.998 3.332 1.497 5.188 1.497 1.089 0 2.061-.1 2.919-.303.857-.2 1.679-.524 2.465-.967v-7.11h-7.502v-.876h8.5v7.35l.061-.03v1.12c-.968.584-1.962 1.013-2.98 1.285-1.018.273-2.132.408-3.342.408-2.118 0-4.064-.519-5.839-1.558-1.774-1.038-3.18-2.47-4.22-4.295-1.038-1.825-1.557-3.877-1.557-6.156 0-2.198.539-4.205 1.618-6.02 1.079-1.815 2.52-3.246 4.326-4.295C29.165.524 31.087 0 33.124 0c1.41 0 2.53.126 3.357.378.827.252 1.785.691 2.874 1.316v1.12c-1.029-.707-1.981-1.205-2.859-1.499-.877-.291-1.97-.438-3.282-.438-1.996 0-3.816.51-5.46 1.528M44.316 2.874L44.316 23.292 43.439 23.292 43.439.272 60.137 20.993 60.137.605 61.014.605 61.014 23.625zM72.599 23.293L73.598 23.293 73.598.605 72.599.605zM79.405 2.874L79.405 23.292 78.528 23.292 78.528.272 95.226 20.993 95.226.605 96.103.605 96.103 23.625z" mask="url(#dr8rzesvtb)"/>
            </g>
        </g>
    </g>
</svg>
