<svg xmlns="http://www.w3.org/2000/svg" width="81" height="24" viewBox="0 0 81 24">
    <g fill="none" fill-rule="evenodd">
        <g>
            <g fill="#FFF" stroke="#000" stroke-width="2">
                <path d="M1 1H272V1079H1z" transform="translate(-34 -768)"/>
            </g>
            <g fill="#000">
                <path d="M0 .605L.998.605.998 22.415 8.016 22.415 8.016 23.292 0 23.292zM25.743 21.523c1.653-.999 2.968-2.35 3.947-4.054.978-1.704 1.467-3.554 1.467-5.55 0-1.977-.484-3.813-1.452-5.506-.968-1.694-2.28-3.04-3.932-4.039-1.654-.998-3.449-1.497-5.385-1.497-1.956 0-3.761.499-5.414 1.497-1.654.999-2.97 2.345-3.948 4.039-.979 1.693-1.467 3.53-1.467 5.506 0 1.996.488 3.846 1.467 5.55.978 1.705 2.294 3.055 3.948 4.054 1.653.998 3.448 1.497 5.384 1.497 1.936 0 3.73-.5 5.385-1.497m-11.284.71c-1.815-1.108-3.252-2.586-4.31-4.431-1.06-1.845-1.589-3.827-1.589-5.944 0-2.097.535-4.059 1.604-5.884 1.069-1.825 2.51-3.277 4.325-4.356C16.304.54 18.271 0 20.39 0c2.137 0 4.103.535 5.898 1.603 1.795 1.07 3.221 2.516 4.28 4.341 1.059 1.825 1.588 3.796 1.588 5.914 0 2.178-.529 4.19-1.588 6.035-1.059 1.845-2.49 3.307-4.295 4.386-1.805 1.078-3.776 1.619-5.914 1.619-2.118 0-4.084-.555-5.899-1.664M41.336 2.405c-1.644 1.018-2.944 2.38-3.902 4.083-.958 1.705-1.437 3.535-1.437 5.49 0 1.978.484 3.812 1.452 5.506.968 1.694 2.254 3.04 3.857 4.039 1.603.998 3.332 1.497 5.188 1.497 1.089 0 2.061-.1 2.919-.303.857-.201 1.679-.523 2.465-.967V14.64h-7.501v-.877h8.5v7.35l.06-.03v1.12c-.968.585-1.962 1.013-2.98 1.285s-2.133.409-3.343.409c-2.117 0-4.063-.52-5.837-1.559-1.775-1.038-3.182-2.47-4.22-4.295-1.04-1.825-1.558-3.877-1.558-6.156 0-2.198.539-4.204 1.618-6.02 1.079-1.815 2.52-3.247 4.326-4.295C42.748.525 44.668 0 46.706 0c1.411 0 2.53.126 3.357.378.827.252 1.785.69 2.874 1.316v1.119c-1.029-.705-1.981-1.205-2.859-1.497-.877-.292-1.971-.439-3.281-.439-1.998 0-3.817.51-5.46 1.528M57.172 23.292L58.171 23.292 58.171.605 57.172.605zM63.978 2.874L63.978 23.292 63.101 23.292 63.101.272 79.799 20.993 79.799.605 80.676.605 80.676 23.625z" transform="translate(-34 -768) translate(34 768)"/>
            </g>
        </g>
    </g>
</svg>
